<svg xmlns="http://www.w3.org/2000/svg" width="95.6" height="95.6" viewBox="-430.8 233 95.6 95.6" enable-background="new -430.8 233 95.6 95.6"><g transform="translate(0-1)" fill="#bdcfd4"><path d="m-383 234c-26.4 0-47.8 21.4-47.8 47.8 0 26.4 21.4 47.8 47.8 47.8 26.4 0 47.8-21.4 47.8-47.8 0-26.4-21.5-47.8-47.8-47.8m0 94.6c-25.8 0-46.8-21-46.8-46.8 0-25.8 21-46.8 46.8-46.8 25.8 0 46.8 21 46.8 46.8 0 25.8-21 46.8-46.8 46.8"/><path d="m-383 240.8c-22.6 0-40.9 18.4-40.9 40.9 0 22.6 18.4 40.9 40.9 40.9s40.9-18.4 40.9-40.9c0-22.5-18.3-40.9-40.9-40.9m29.7 41.5h10.2c-.1 5.1-1.1 9.9-2.9 14.4l-9.4-4c-.3-.1-.5 0-.7.3-.1.3 0 .5.3.7l9.4 4c-2 4.5-4.7 8.6-8.1 12.1l-7.6-7.6-.3.3c0 0 0 0 0 0-.1.1-.3.3-.4.4-.2.2-.4.4-.6.6-.2.2-.3.3-.5.4-.2.2-.4.3-.6.5-.2.1-.4.3-.5.4-.2.1-.4.3-.6.4-.2.1-.4.3-.5.4-.2.1-.4.3-.6.4-.2.1-.3.2-.5.3-.2.2-.5.3-.7.5-.1.1-.3.1-.4.2-.3.2-.6.3-.8.5-.1 0-.1.1-.2.1-.8.4-1.6.8-2.4 1.1-3.6 1.5-7.4 2.3-11.3 2.3h-.1c-4 0-8-.8-11.7-2.5-.8-.4-1.6-.8-2.4-1.2-.2-.1-.4-.3-.6-.4-.6-.3-1.1-.7-1.6-1-.3-.2-.5-.4-.8-.6-.4-.3-.9-.6-1.3-1-.3-.2-.6-.5-.9-.8-.4-.3-.7-.6-1.1-1 0 0-.1-.1-.1-.1 0 0-.1 0-.1-.1l-.3-.3-7.5 7.5c-3.2-3.3-5.8-7.1-7.7-11.3l9.3-4c.3-.1.4-.4.3-.7-.1-.3-.4-.4-.7-.3l-9.4 4.1c-2-4.7-3.1-9.8-3.2-15.2h10.2c.3 0 .5-.2.5-.5 0-.3-.2-.5-.5-.5h-10.2c.1-5.1 1.1-9.9 2.9-14.4l9.4 4c.1 0 .1 0 .2 0 .2 0 .4-.1.5-.3.1-.3 0-.5-.3-.7l-9.4-4c2-4.5 4.7-8.6 8.1-12.1l7.2 7.2c.1.1.2.1.4.1s.3 0 .4-.1c.2-.2.2-.5 0-.7l-7.2-7.2c3.3-3.2 7.1-5.8 11.3-7.8l4.2 9.3c.1.2.3.3.5.3.1 0 .1 0 .2 0 .3-.1.4-.4.3-.7l-4.2-9.3c4.7-2 9.8-3.1 15.2-3.2v10.5c0 .3.2.5.5.5.3 0 .5-.2.5-.5v-10.2c5.1.1 9.9 1.1 14.4 2.9l-3.8 9.4c-.1.3 0 .5.3.7.1 0 .1 0 .2 0 .2 0 .4-.1.5-.3l3.8-9.4c4.5 2 8.6 4.7 12.1 8.1l-4 4c-.4.3-12.8 11-23.1 20.3-.3 0-.5-.1-.7-.1-2.4 0-4.3 1.9-4.3 4.3 0 .1 0 .2 0 .3-2.1 1.9-6.2 5.6-6.2 5.6l-.4.4 4.6 4.6 6-6.5c.1 0 .2 0 .3 0 2.4 0 4.3-2 4.3-4.3 0-.2 0-.5-.1-.8l20.3-23 4-4c3.2 3.3 5.8 7.1 7.8 11.3l-9.3 4.1c-.3.1-.4.4-.3.7.1.2.3.3.5.3.1 0 .1 0 .2 0l9.3-4.1c2 4.7 3.1 9.8 3.2 15.2h-10.2c-.3 0-.5.2-.5.5-.5.1-.2.3 0 .3m-50.8 21.2c.4.4.8.7 1.2 1 .2.2.4.4.6.6 1.4 1.1 2.9 2.2 4.4 3 .3.1.5.3.8.4.5.2.9.5 1.4.7l-3.9 8.7c-4.2-1.9-8-4.5-11.3-7.7l6.8-6.7m10.5 6.7c.3.1.6.2.8.3.2.1.4.1.6.2.3.1.6.2.9.3.2 0 .4.1.5.2.4.1.8.2 1.2.3.1 0 .2 0 .3.1.5.1 1 .2 1.4.3.2 0 .4 0 .5.1.3 0 .6.1 1 .1.2 0 .4 0 .6.1.3 0 .6.1.9.1.2 0 .4 0 .7 0 .2 0 .4 0 .6 0v9.5c-5.2-.1-10.3-1.1-15.1-3.2l3.9-8.7c.2.1.4.1.6.2.2-.1.4 0 .6.1m12.3 1.8c.3 0 .6 0 .9-.1.2 0 .4 0 .5 0 .3 0 .7-.1 1-.1.1 0 .3 0 .4-.1.9-.1 1.9-.3 2.8-.6.1 0 .3-.1.4-.1.3-.1.6-.2 1-.3.2-.1.3-.1.5-.2.3-.1.6-.2.9-.3.2-.1.4-.1.5-.2.2-.1.4-.1.6-.2l3.6 8.9c-4.6 1.8-9.4 2.8-14.3 2.9v-9.5c.2 0 .4 0 .6 0 .2-.1.4-.1.6-.1m12.7-3.7c.1 0 .1-.1.2-.1 1.5-.8 2.8-1.8 4.1-2.8.1-.1.1-.1.2-.2.6-.5 1.2-1 1.8-1.6.1-.1.1-.1.2-.2l6.8 6.8c-3.5 3.4-7.6 6.1-12 8.1l-3.6-8.9c.1 0 .1-.1.2-.1.7-.2 1.4-.6 2.1-1m-14.4-23.2c-.1 0-.3 0-.4 0 0 0-.1 0-.1 0-1.5-.2-2.6-1.4-2.8-2.9v-.1c0-.1 0-.2 0-.3 0-1.8 1.5-3.3 3.3-3.3.2 0 .5 0 .8.1 1.2.3 2.2 1.2 2.5 2.4.1.3.1.6.1.8-.1 1.8-1.6 3.3-3.4 3.3m-4.1-1.9c.4 1.2 1.4 2.2 2.6 2.6l-4.9 5.3-3.1-3.1c1-.9 3.7-3.2 5.4-4.8m8-3.3c-.4-.9-1.2-1.6-2-2 6-5.3 12.5-11.1 17.1-15l-15.1 17"/></g></svg>